<?xml version="1.0" encoding="utf-8"?>
<!-- Generator: Adobe Illustrator 17.0.2, SVG Export Plug-In . SVG Version: 6.00 Build 0)  -->
<!DOCTYPE svg PUBLIC "-//W3C//DTD SVG 1.1//EN" "http://www.w3.org/Graphics/SVG/1.1/DTD/svg11.dtd">
<svg version="1.1" id="Layer_1" xmlns="http://www.w3.org/2000/svg" xmlns:xlink="http://www.w3.org/1999/xlink" x="0px" y="0px"
	 width="200px" height="200px" viewBox="0 0 200 200" enable-background="new 0 0 200 200" xml:space="preserve">
<g>
	<circle fill="#765373" cx="75.315" cy="65.198" r="24.685"/>
	<circle fill="#765373" cx="117.09" cy="65.198" r="24.685"/>
	<circle fill="#765373" cx="58.225" cy="104.703" r="24.685"/>
	<circle fill="#765373" cx="98.101" cy="103.175" r="24.685"/>
	<circle fill="#765373" cx="141.775" cy="100.327" r="24.685"/>
	<circle fill="#765373" cx="120.888" cy="135.456" r="24.685"/>
	<circle fill="#765373" cx="79.112" cy="141.916" r="24.685"/>
	<circle fill="#765373" cx="103.798" cy="172.484" r="24.685"/>
	<path fill="none" stroke="#59351C" stroke-width="7.5955" stroke-linecap="round" stroke-miterlimit="10" d="M92.974,47.418
		c0,0-11.939-14.582-0.714-40.587"/>
	
		<path fill="#7AA20D" stroke="#7AA20D" stroke-width="2.7709" stroke-linecap="round" stroke-linejoin="round" stroke-miterlimit="10" d="
		M89.327,42.626c-0.159-4.332,1.895-8.804,6.411-12.762c9.423-8.259,18.351-9.065,30.182-7.12c0.005,0.001,15.2,2.497,20.809-10.38
		c-3.486,8.004-6.847,15.859-11.208,23.471c-7.086,12.37-21.419,30.443-37.392,20.092C92.566,52.32,89.509,47.564,89.327,42.626z"/>
</g>
</svg>
