<?xml version="1.0" encoding="utf-8"?>
<!-- Generator: Adobe Illustrator 17.0.2, SVG Export Plug-In . SVG Version: 6.00 Build 0)  -->
<!DOCTYPE svg PUBLIC "-//W3C//DTD SVG 1.1//EN" "http://www.w3.org/Graphics/SVG/1.1/DTD/svg11.dtd">
<svg version="1.1" id="Layer_1" xmlns="http://www.w3.org/2000/svg" xmlns:xlink="http://www.w3.org/1999/xlink" x="0px" y="0px"
	 width="200px" height="200px" viewBox="0 0 200 200" enable-background="new 0 0 200 200" xml:space="preserve">
<g>
	<g>
		
			<path fill="#7AA20D" stroke="#7AA20D" stroke-width="2.1955" stroke-linecap="round" stroke-linejoin="round" stroke-miterlimit="10" d="
			M102.257,35.484c-0.441-3.406,0.853-7.084,4.128-10.536c6.833-7.203,13.818-8.489,23.294-7.818c0.004,0,12.175,0.862,15.661-9.706
			c-2.167,6.569-4.246,13.011-7.132,19.335c-4.689,10.276-14.68,25.579-28.036,18.577C105.519,42.897,102.76,39.367,102.257,35.484z
			"/>
		
			<path fill="none" stroke="#7AA20D" stroke-width="4.5135" stroke-linecap="round" stroke-linejoin="round" stroke-miterlimit="10" d="
			M90.133,54.034c0,0,7.072,0.01,15.462-12.031"/>
		<path fill="none" stroke="#59351C" stroke-width="7.0497" stroke-linecap="round" stroke-miterlimit="10" d="M92.697,64.937
			c0,0-11.081-13.534-0.662-37.671"/>
	</g>
	<circle fill="#EF9235" cx="100" cy="125.801" r="66.764"/>
</g>
</svg>
