<?xml version="1.0" encoding="utf-8"?>
<!-- Generator: Adobe Illustrator 17.0.2, SVG Export Plug-In . SVG Version: 6.00 Build 0)  -->
<!DOCTYPE svg PUBLIC "-//W3C//DTD SVG 1.1//EN" "http://www.w3.org/Graphics/SVG/1.1/DTD/svg11.dtd">
<svg version="1.1" id="Layer_1" xmlns="http://www.w3.org/2000/svg" xmlns:xlink="http://www.w3.org/1999/xlink" x="0px" y="0px"
	 width="200px" height="200px" viewBox="0 0 200 200" enable-background="new 0 0 200 200" xml:space="preserve">
<g>
	<path fill="none" stroke="#59351C" stroke-width="7.1136" stroke-linecap="round" stroke-miterlimit="10" d="M98.89,42.717
		c0,0-7.633-15.914,8.342-37.091"/>
	<path fill="#BBC42A" d="M45.638,131.774c-0.591,1.822-1.105,3.675-1.526,5.565c-6.851,30.72,7.727,56.266,44.757,58.703
		c58.989,3.882,80.371-26.548,62.578-69.604c-17.793-43.054-26.024-32.713-27.781-65.755c-0.791-14.87-11.487-28.118-27.12-25.436
		C78.561,38.332,76.06,55.859,73.578,70.891C69.84,93.538,52.517,110.563,45.638,131.774z"/>
	
		<path fill="#7AA20D" stroke="#7AA20D" stroke-width="2.5951" stroke-linecap="round" stroke-linejoin="round" stroke-miterlimit="10" d="
		M96.633,37.548c0.815-3.977,3.675-7.592,8.661-10.193c10.405-5.428,18.707-4.183,29.043,0.207
		c0.004,0.002,13.279,5.64,21.235-4.835c-4.946,6.511-9.744,12.914-15.399,18.875c-9.188,9.687-26.235,22.957-38.477,9.999
		C97.432,47.088,95.704,42.082,96.633,37.548z"/>
</g>
</svg>
